<mxfile host="app.diagrams.net" modified="2024-07-05T15:36:05.148Z" agent="Mozilla/5.0 (Windows NT 10.0; Win64; x64) AppleWebKit/537.36 (KHTML, like Gecko) Chrome/126.0.0.0 Safari/537.36" version="24.6.4" etag="vRaXjPg6I7knpgWMg5Qe" type="github">
  <diagram name="PÃ¡gina-1" id="76HAJhtmkmuk8l9MemGc">
    <mxGraphModel>
      <root>
        <mxCell id="0" />
        <mxCell id="1" parent="0" />
      </root>
    </mxGraphModel>
  </diagram>
</mxfile>
